<svg width="873" height="878" viewBox="0 0 873 878" fill="none" xmlns="http://www.w3.org/2000/svg">
<circle opacity="0.5" cx="44" cy="99" r="344.5" stroke="#587676"/>
<rect opacity="0.5" x="443.707" y="658.96" width="303" height="303" transform="rotate(-45 443.707 658.96)" stroke="#F87E7E"/>
<path opacity="0.9" d="M443.749 870.208L500.565 732.4L563.828 777.53C525.548 814.198 458.671 870.15 450.196 875.446C443.749 879.476 441.735 874.237 443.749 870.208Z" stroke="#7E6EE6" stroke-width="0.805894"/>
<circle cx="538.039" cy="745.892" r="39.4888" fill="#151E29" stroke="#5A5D7B" stroke-width="0.805894"/>
<path d="M536.122 727.708C536.725 725.852 539.352 725.852 539.955 727.708L542.812 736.502C543.19 737.664 544.273 738.451 545.494 738.451H554.741C556.693 738.451 557.504 740.948 555.925 742.096L548.445 747.53C547.456 748.249 547.042 749.522 547.42 750.684L550.277 759.478C550.88 761.334 548.756 762.878 547.177 761.73L539.696 756.295C538.708 755.577 537.369 755.577 536.381 756.295L528.9 761.73C527.321 762.878 525.197 761.334 525.8 759.478L528.657 750.684C529.035 749.522 528.621 748.249 527.632 747.53L520.152 742.096C518.573 740.948 519.384 738.451 521.336 738.451H530.583C531.804 738.451 532.887 737.664 533.265 736.502L536.122 727.708Z" stroke="#F87E7E" stroke-width="0.805894"/>
<path opacity="0.5" d="M41 510.5L23.5 493L33.5 514.5L26 512.5L31 518L9.5 515.5L26 522L6.5 526L36 529.5L28.5 535.5L38.5 533L31 552L41 540" stroke="#F87E7E"/>
<path opacity="0.9" d="M270.749 351.208L330 208.5L394.5 253.5C356.22 290.168 285.671 351.15 277.196 356.446C270.749 360.476 268.735 355.237 270.749 351.208Z" stroke="#7E6EE6" stroke-width="0.805894"/>
<circle cx="365.039" cy="226.892" r="39.4888" fill="#151E29" stroke="#5A5D7B" stroke-width="0.805894"/>
<path d="M363.122 208.708C363.725 206.852 366.352 206.852 366.955 208.708L369.812 217.502C370.19 218.664 371.273 219.451 372.494 219.451H381.741C383.693 219.451 384.504 221.948 382.925 223.096L375.445 228.53C374.456 229.249 374.042 230.522 374.42 231.684L377.277 240.478C377.88 242.334 375.756 243.878 374.177 242.73L366.696 237.295C365.708 236.577 364.369 236.577 363.381 237.295L355.9 242.73C354.321 243.878 352.197 242.334 352.8 240.478L355.657 231.684C356.035 230.522 355.621 229.249 354.632 228.53L347.152 223.096C345.573 221.948 346.384 219.451 348.336 219.451H357.583C358.804 219.451 359.887 218.664 360.265 217.502L363.122 208.708Z" stroke="#F87E7E" stroke-width="0.805894"/>
<path opacity="0.9" d="M658.284 219.15L680 167L703.5 183.5C689.012 197.378 663.931 219.128 660.724 221.133C658.284 222.658 657.521 220.676 658.284 219.15Z" stroke="#7E6EE6" stroke-width="0.305019"/>
<circle cx="693.971" cy="172.098" r="14.9459" fill="#151E29" stroke="#5A5D7B" stroke-width="0.305019"/>
<path d="M693.246 165.216C693.474 164.514 694.468 164.514 694.696 165.216L695.778 168.545C695.92 168.984 696.33 169.282 696.793 169.282H700.292C701.031 169.282 701.338 170.228 700.741 170.662L697.909 172.719C697.535 172.991 697.379 173.472 697.522 173.912L698.603 177.241C698.831 177.943 698.027 178.527 697.43 178.093L694.598 176.036C694.224 175.764 693.718 175.764 693.343 176.036L690.512 178.093C689.915 178.527 689.11 177.943 689.339 177.241L690.42 173.912C690.563 173.472 690.406 172.991 690.032 172.719L687.201 170.662C686.603 170.228 686.911 169.282 687.649 169.282H691.149C691.611 169.282 692.021 168.984 692.164 168.545L693.246 165.216Z" stroke="#F87E7E" stroke-width="0.305019"/>
<circle cy="734" r="35.5" stroke="#587676"/>
</svg>
