<svg width="431" height="434" viewBox="0 0 431 434" fill="none" xmlns="http://www.w3.org/2000/svg">
<rect opacity="0.5" x="1.70711" y="214.96" width="303" height="303" transform="rotate(-45 1.70711 214.96)" stroke="#F87E7E"/>
<path opacity="0.9" d="M1.74937 426.208L58.5649 288.4L121.828 333.53C83.5477 370.198 16.6705 426.15 8.19645 431.446C1.74939 435.476 -0.265407 430.237 1.74937 426.208Z" stroke="#7E6EE6" stroke-width="0.805894"/>
<circle cx="96.0387" cy="301.892" r="39.4888" fill="#151E29" stroke="#5A5D7B" stroke-width="0.805894"/>
<path d="M94.1224 283.708C94.7255 281.852 97.3515 281.852 97.9546 283.708L100.812 292.502C101.19 293.664 102.273 294.451 103.494 294.451H112.741C114.693 294.451 115.504 296.948 113.925 298.096L106.445 303.53C105.456 304.249 105.042 305.522 105.42 306.684L108.277 315.478C108.88 317.334 106.756 318.878 105.177 317.73L97.6964 312.295C96.7078 311.577 95.3692 311.577 94.3806 312.295L86.9001 317.73C85.3211 318.878 83.1966 317.334 83.7998 315.478L86.657 306.684C87.0346 305.522 86.621 304.249 85.6324 303.53L78.1519 298.096C76.5729 296.948 77.3844 294.451 79.3362 294.451H88.5825C89.8045 294.451 90.8875 293.664 91.2651 292.502L94.1224 283.708Z" stroke="#F87E7E" stroke-width="0.805894"/>
</svg>
