<svg width="405" height="444" viewBox="0 0 405 444" fill="none" xmlns="http://www.w3.org/2000/svg">
<circle opacity="0.5" cx="44" cy="99" r="344.5" stroke="#587676"/>
<path opacity="0.9" d="M270.749 351.208L330 208.5L394.5 253.5C356.22 290.168 285.671 351.15 277.196 356.446C270.749 360.476 268.735 355.237 270.749 351.208Z" stroke="#7E6EE6" stroke-width="0.805894"/>
<circle cx="365.039" cy="226.892" r="39.4888" fill="#151E29" stroke="#5A5D7B" stroke-width="0.805894"/>
<path d="M363.122 208.708C363.725 206.852 366.352 206.852 366.955 208.708L369.812 217.502C370.19 218.664 371.273 219.451 372.494 219.451H381.741C383.693 219.451 384.504 221.948 382.925 223.096L375.445 228.53C374.456 229.249 374.042 230.522 374.42 231.684L377.277 240.478C377.88 242.334 375.756 243.878 374.177 242.73L366.696 237.295C365.708 236.577 364.369 236.577 363.381 237.295L355.9 242.73C354.321 243.878 352.197 242.334 352.8 240.478L355.657 231.684C356.035 230.522 355.621 229.249 354.632 228.53L347.152 223.096C345.573 221.948 346.384 219.451 348.336 219.451H357.583C358.804 219.451 359.887 218.664 360.265 217.502L363.122 208.708Z" stroke="#F87E7E" stroke-width="0.805894"/>
</svg>
