<svg width="873" height="434" viewBox="0 0 873 434" fill="none" xmlns="http://www.w3.org/2000/svg">
<rect opacity="0.5" x="443.707" y="214.96" width="303" height="303" transform="rotate(-45 443.707 214.96)" stroke="#F87E7E"/>
<path opacity="0.9" d="M443.749 426.208L500.565 288.4L563.828 333.53C525.548 370.198 458.671 426.15 450.196 431.446C443.749 435.476 441.735 430.237 443.749 426.208Z" stroke="#7E6EE6" stroke-width="0.805894"/>
<circle cx="538.039" cy="301.892" r="39.4888" fill="#151E29" stroke="#5A5D7B" stroke-width="0.805894"/>
<path d="M536.122 283.708C536.725 281.852 539.352 281.852 539.955 283.708L542.812 292.502C543.19 293.664 544.273 294.451 545.494 294.451H554.741C556.693 294.451 557.504 296.948 555.925 298.096L548.445 303.53C547.456 304.249 547.042 305.522 547.42 306.684L550.277 315.478C550.88 317.334 548.756 318.878 547.177 317.73L539.696 312.295C538.708 311.577 537.369 311.577 536.381 312.295L528.9 317.73C527.321 318.878 525.197 317.334 525.8 315.478L528.657 306.684C529.035 305.522 528.621 304.249 527.632 303.53L520.152 298.096C518.573 296.948 519.384 294.451 521.336 294.451H530.583C531.804 294.451 532.887 293.664 533.265 292.502L536.122 283.708Z" stroke="#F87E7E" stroke-width="0.805894"/>
<path opacity="0.5" d="M41 66.5L23.5 49L33.5 70.5L26 68.5L31 74L9.5 71.5L26 78L6.5 82L36 85.5L28.5 91.5L38.5 89L31 108L41 96" stroke="#F87E7E"/>
<circle cy="290" r="35.5" stroke="#587676"/>
</svg>
