<svg width="710" height="444" viewBox="0 0 710 444" fill="none" xmlns="http://www.w3.org/2000/svg">
<circle opacity="0.5" cx="44" cy="99" r="344.5" stroke="#587676"/>
<path opacity="0.9" d="M270.749 351.208L330 208.5L394.5 253.5C356.22 290.168 285.671 351.15 277.196 356.446C270.749 360.476 268.735 355.237 270.749 351.208Z" stroke="#7E6EE6" stroke-width="0.805894"/>
<circle cx="365.039" cy="226.892" r="39.4888" fill="#151E29" stroke="#5A5D7B" stroke-width="0.805894"/>
<path d="M363.122 208.708C363.725 206.852 366.352 206.852 366.955 208.708L369.812 217.502C370.19 218.664 371.273 219.451 372.494 219.451H381.741C383.693 219.451 384.504 221.948 382.925 223.096L375.445 228.53C374.456 229.249 374.042 230.522 374.42 231.684L377.277 240.478C377.88 242.334 375.756 243.878 374.177 242.73L366.696 237.295C365.708 236.577 364.369 236.577 363.381 237.295L355.9 242.73C354.321 243.878 352.197 242.334 352.8 240.478L355.657 231.684C356.035 230.522 355.621 229.249 354.632 228.53L347.152 223.096C345.573 221.948 346.384 219.451 348.336 219.451H357.583C358.804 219.451 359.887 218.664 360.265 217.502L363.122 208.708Z" stroke="#F87E7E" stroke-width="0.805894"/>
<path opacity="0.9" d="M658.284 219.15L680 167L703.5 183.5C689.012 197.378 663.931 219.128 660.724 221.133C658.284 222.658 657.521 220.676 658.284 219.15Z" stroke="#7E6EE6" stroke-width="0.305019"/>
<circle cx="693.971" cy="172.098" r="14.9459" fill="#151E29" stroke="#5A5D7B" stroke-width="0.305019"/>
<path d="M693.246 165.216C693.474 164.514 694.468 164.514 694.696 165.216L695.778 168.545C695.92 168.984 696.33 169.282 696.793 169.282H700.292C701.031 169.282 701.338 170.228 700.741 170.662L697.909 172.719C697.535 172.991 697.379 173.472 697.522 173.912L698.603 177.241C698.831 177.943 698.027 178.527 697.43 178.093L694.598 176.036C694.224 175.764 693.718 175.764 693.343 176.036L690.512 178.093C689.915 178.527 689.11 177.943 689.339 177.241L690.42 173.912C690.563 173.472 690.406 172.991 690.032 172.719L687.201 170.662C686.603 170.228 686.911 169.282 687.649 169.282H691.149C691.611 169.282 692.021 168.984 692.164 168.545L693.246 165.216Z" stroke="#F87E7E" stroke-width="0.305019"/>
</svg>
