<svg width="136" height="172" viewBox="0 0 136 172" fill="none" xmlns="http://www.w3.org/2000/svg">
<path opacity="0.9" d="M1.74936 164.208L61 21.5L125.5 66.5C87.22 103.168 16.6705 164.15 8.19645 169.446C1.74938 173.476 -0.265416 168.237 1.74936 164.208Z" stroke="#7E6EE6" stroke-width="0.805894"/>
<circle cx="96.0387" cy="39.8918" r="39.4888" fill="#151E29" stroke="#5A5D7B" stroke-width="0.805894"/>
<path d="M94.1224 21.708C94.7255 19.8518 97.3515 19.8518 97.9546 21.708L100.812 30.5018C101.19 31.664 102.273 32.4508 103.494 32.4508H112.741C114.693 32.4508 115.504 34.9483 113.925 36.0955L106.445 41.5304C105.456 42.2487 105.042 43.5218 105.42 44.684L108.277 53.4778C108.88 55.334 106.756 56.8775 105.177 55.7303L97.6964 50.2954C96.7078 49.5772 95.3692 49.5772 94.3806 50.2955L86.9001 55.7303C85.3211 56.8775 83.1966 55.334 83.7998 53.4778L86.657 44.684C87.0346 43.5218 86.621 42.2487 85.6324 41.5304L78.1519 36.0955C76.5729 34.9483 77.3844 32.4508 79.3362 32.4508H88.5825C89.8045 32.4508 90.8875 31.664 91.2651 30.5018L94.1224 21.708Z" stroke="#F87E7E" stroke-width="0.805894"/>
</svg>
