<svg width="168" height="67" viewBox="0 0 168 67" fill="none" xmlns="http://www.w3.org/2000/svg">
<path d="M97.7351 49.7439H91.7987C91.7726 51.4623 92.0851 52.9464 92.736 54.1962C93.3869 55.446 94.2591 56.4744 95.3527 57.2816C96.4723 58.0887 97.7481 58.6745 99.1801 59.0391C100.638 59.4296 102.135 59.6249 103.671 59.6249C105.572 59.6249 107.239 59.4036 108.671 58.9609C110.129 58.5183 111.339 57.9065 112.303 57.1253C113.292 56.3182 114.034 55.3679 114.529 54.2743C115.024 53.1808 115.271 51.9961 115.271 50.7203C115.271 49.1581 114.932 47.8822 114.255 46.8928C113.605 45.8774 112.823 45.0703 111.912 44.4714C111.001 43.8726 110.077 43.443 109.139 43.1826C108.228 42.8962 107.512 42.7009 106.991 42.5968C105.247 42.1541 103.828 41.7896 102.734 41.5032C101.667 41.2168 100.82 40.9304 100.196 40.644C99.5967 40.3576 99.1931 40.0451 98.9848 39.7067C98.7765 39.3682 98.6724 38.9256 98.6724 38.3788C98.6724 37.7799 98.8026 37.2852 99.0629 36.8947C99.3233 36.5041 99.6488 36.1787 100.039 35.9183C100.456 35.6579 100.912 35.4757 101.406 35.3715C101.901 35.2674 102.396 35.2153 102.89 35.2153C103.645 35.2153 104.335 35.2804 104.96 35.4106C105.611 35.5408 106.184 35.7621 106.679 36.0745C107.173 36.387 107.564 36.8166 107.85 37.3633C108.163 37.9101 108.345 38.6001 108.397 39.4333H114.334C114.334 37.819 114.021 36.4521 113.396 35.3325C112.797 34.1868 111.977 33.2495 110.936 32.5205C109.894 31.7915 108.697 31.2707 107.343 30.9583C106.015 30.6198 104.622 30.4506 103.164 30.4506C101.914 30.4506 100.664 30.6198 99.4144 30.9583C98.1647 31.2967 97.0451 31.8175 96.0557 32.5205C95.0663 33.2235 94.2591 34.1087 93.6343 35.1762C93.0354 36.2177 92.736 37.4545 92.736 38.8865C92.736 40.1623 92.9703 41.2559 93.439 42.1672C93.9337 43.0524 94.5716 43.7945 95.3527 44.3933C96.1338 44.9922 97.0191 45.4869 98.0085 45.8774C98.9979 46.2419 100.013 46.5544 101.055 46.8147C102.07 47.1011 103.073 47.3615 104.062 47.5958C105.051 47.8302 105.937 48.1036 106.718 48.416C107.499 48.7284 108.124 49.119 108.592 49.5877C109.087 50.0563 109.335 50.6682 109.335 51.4233C109.335 52.1263 109.152 52.7121 108.788 53.1808C108.423 53.6234 107.968 53.9749 107.421 54.2352C106.874 54.4956 106.288 54.6779 105.663 54.782C105.038 54.8601 104.453 54.8992 103.906 54.8992C103.099 54.8992 102.318 54.8081 101.562 54.6258C100.807 54.4175 100.143 54.1181 99.5707 53.7275C99.0239 53.3109 98.5813 52.7772 98.2428 52.1263C97.9043 51.4753 97.7351 50.6812 97.7351 49.7439ZM125.363 38.8084V32.7548H119.818V38.8084H116.459V42.5186H119.818V54.4305C119.818 55.446 119.987 56.2661 120.325 56.891C120.664 57.5159 121.119 57.9976 121.692 58.3361C122.291 58.6745 122.968 58.8959 123.723 59C124.504 59.1302 125.324 59.1953 126.184 59.1953C126.73 59.1953 127.29 59.1823 127.863 59.1562C128.436 59.1302 128.956 59.0781 129.425 59V54.7039C129.165 54.756 128.891 54.795 128.605 54.8211C128.319 54.8471 128.019 54.8601 127.707 54.8601C126.769 54.8601 126.144 54.7039 125.832 54.3915C125.52 54.079 125.363 53.4541 125.363 52.5168V42.5186H129.425V38.8084H125.363ZM131.829 45.0182C131.908 43.7163 132.233 42.6358 132.806 41.7766C133.379 40.9174 134.108 40.2274 134.993 39.7067C135.878 39.1859 136.868 38.8214 137.961 38.6131C139.081 38.3788 140.2 38.2616 141.32 38.2616C142.335 38.2616 143.364 38.3397 144.405 38.4959C145.447 38.6261 146.397 38.8995 147.256 39.3161C148.116 39.7327 148.819 40.3185 149.365 41.0736C149.912 41.8026 150.185 42.779 150.185 44.0028V54.5086C150.185 55.4199 150.238 56.2922 150.342 57.1253C150.446 57.9585 150.628 58.5834 150.888 59H145.264C145.16 58.6876 145.069 58.3751 144.991 58.0627C144.939 57.7242 144.9 57.3857 144.874 57.0472C143.989 57.9585 142.947 58.5964 141.75 58.9609C140.552 59.3255 139.328 59.5077 138.078 59.5077C137.115 59.5077 136.217 59.3906 135.383 59.1562C134.55 58.9219 133.821 58.5574 133.196 58.0627C132.572 57.568 132.077 56.9431 131.712 56.188C131.374 55.4329 131.205 54.5347 131.205 53.4932C131.205 52.3476 131.4 51.4102 131.79 50.6812C132.207 49.9261 132.728 49.3273 133.353 48.8847C134.004 48.442 134.733 48.1166 135.54 47.9083C136.373 47.674 137.206 47.4917 138.039 47.3615C138.872 47.2313 139.693 47.1272 140.5 47.0491C141.307 46.971 142.023 46.8538 142.648 46.6976C143.273 46.5413 143.767 46.32 144.132 46.0336C144.496 45.7212 144.666 45.2786 144.64 44.7057C144.64 44.1069 144.535 43.6382 144.327 43.2998C144.145 42.9352 143.885 42.6619 143.546 42.4796C143.234 42.2713 142.856 42.1411 142.413 42.089C141.997 42.0109 141.541 41.9719 141.047 41.9719C139.953 41.9719 139.094 42.2062 138.469 42.6749C137.844 43.1435 137.479 43.9246 137.375 45.0182H131.829ZM144.64 49.119C144.405 49.3273 144.106 49.4965 143.741 49.6267C143.403 49.7309 143.025 49.822 142.609 49.9001C142.218 49.9782 141.802 50.0433 141.359 50.0954C140.916 50.1475 140.474 50.2125 140.031 50.2907C139.614 50.3688 139.198 50.4729 138.781 50.6031C138.391 50.7333 138.039 50.9155 137.727 51.1499C137.44 51.3582 137.206 51.6316 137.024 51.97C136.842 52.3085 136.75 52.7381 136.75 53.2589C136.75 53.7536 136.842 54.1702 137.024 54.5086C137.206 54.8471 137.453 55.1205 137.766 55.3288C138.078 55.5111 138.443 55.6412 138.859 55.7194C139.276 55.7975 139.706 55.8365 140.148 55.8365C141.242 55.8365 142.088 55.6543 142.687 55.2897C143.286 54.9252 143.728 54.4956 144.015 54.0009C144.301 53.4802 144.47 52.9594 144.522 52.4387C144.601 51.918 144.64 51.5014 144.64 51.1889V49.119ZM154.49 38.8084V59H160.036V49.9001C160.036 48.9888 160.127 48.1426 160.309 47.3615C160.492 46.5804 160.791 45.9034 161.208 45.3306C161.65 44.7318 162.223 44.2631 162.926 43.9246C163.629 43.5862 164.488 43.4169 165.504 43.4169C165.842 43.4169 166.194 43.443 166.558 43.495C166.923 43.5211 167.235 43.5601 167.496 43.6122V38.4569C167.053 38.3267 166.649 38.2616 166.285 38.2616C165.582 38.2616 164.905 38.3658 164.254 38.5741C163.603 38.7824 162.991 39.0818 162.418 39.4723C161.846 39.8368 161.338 40.2925 160.895 40.8393C160.453 41.36 160.101 41.9328 159.841 42.5577H159.763V38.8084H154.49Z" fill="#E17475"/>
<path opacity="0.55" d="M67.7457 55.6349L87.1149 8.6543L108.682 24.0398C95.6319 36.5405 72.8325 55.6151 69.9436 57.4208C67.7457 58.7945 67.0588 57.0086 67.7457 55.6349Z" fill="#E17475"/>
<circle cx="99.8902" cy="13.5997" r="13.5997" fill="#E17475"/>
<path d="M99.1063 7.35785C99.353 6.59849 100.427 6.59849 100.674 7.35785L101.648 10.3558C101.758 10.6954 102.075 10.9253 102.432 10.9253H105.584C106.383 10.9253 106.715 11.947 106.069 12.4163L103.519 14.2692C103.23 14.479 103.109 14.8511 103.219 15.1907L104.193 18.1886C104.44 18.948 103.571 19.5794 102.925 19.1101L100.375 17.2573C100.086 17.0474 99.6946 17.0474 99.4057 17.2573L96.8555 19.1101C96.2096 19.5794 95.3404 18.948 95.5872 18.1886L96.5613 15.1907C96.6716 14.8511 96.5507 14.479 96.2618 14.2692L93.7116 12.4163C93.0657 11.947 93.3977 10.9253 94.1961 10.9253H97.3483C97.7054 10.9253 98.0219 10.6954 98.1322 10.3558L99.1063 7.35785Z" fill="#151E29"/>
<path d="M0.694818 31.1145V59H6.82651V46.971H18.1135V59H24.2452V31.1145H18.1135V41.8157H6.82651V31.1145H0.694818ZM42.6485 46.7366H33.6267C33.6527 46.3461 33.7308 45.9034 33.861 45.4087C34.0173 44.914 34.2646 44.4454 34.6031 44.0028C34.9676 43.5601 35.4363 43.1956 36.0091 42.9092C36.6079 42.5968 37.35 42.4405 38.2352 42.4405C39.5892 42.4405 40.5916 42.8051 41.2425 43.5341C41.9195 44.2631 42.3881 45.3306 42.6485 46.7366ZM33.6267 50.2516H48.1943C48.2985 48.6894 48.1683 47.1923 47.8038 45.7602C47.4393 44.3282 46.8404 43.0524 46.0072 41.9328C45.2001 40.8132 44.1586 39.928 42.8828 39.2771C41.607 38.6001 40.1099 38.2616 38.3915 38.2616C36.8553 38.2616 35.4493 38.535 34.1735 39.0818C32.9237 39.6286 31.8432 40.3836 30.9319 41.347C30.0206 42.2843 29.3176 43.4039 28.8229 44.7057C28.3282 46.0076 28.0808 47.4136 28.0808 48.9237C28.0808 50.4859 28.3152 51.918 28.7838 53.2198C29.2785 54.5217 29.9685 55.6412 30.8538 56.5786C31.739 57.5159 32.8196 58.2449 34.0954 58.7657C35.3712 59.2604 36.8032 59.5077 38.3915 59.5077C40.6827 59.5077 42.6355 58.987 44.2498 57.9455C45.864 56.904 47.0617 55.1726 47.8428 52.7511H42.9609C42.7787 53.376 42.284 53.9749 41.4768 54.5477C40.6697 55.0945 39.7063 55.3679 38.5867 55.3679C37.0245 55.3679 35.8268 54.9643 34.9936 54.1571C34.1605 53.35 33.7048 52.0482 33.6267 50.2516ZM61.4426 61.4995L69.8786 38.8084H64.1375L59.7242 52.634H59.6461L55.0766 38.8084H49.1793L56.2483 57.7502C56.4045 58.1408 56.4826 58.5574 56.4826 59C56.4826 59.5988 56.3004 60.1456 55.9358 60.6403C55.5974 61.135 55.0636 61.4214 54.3346 61.4995C53.7878 61.5256 53.241 61.5126 52.6942 61.4605C52.1475 61.4084 51.6137 61.3563 51.093 61.3043V65.8737C51.6658 65.9258 52.2256 65.9649 52.7724 65.9909C53.3452 66.043 53.918 66.069 54.4908 66.069C56.3915 66.069 57.8756 65.7175 58.9431 65.0145C60.0106 64.3115 60.8438 63.1399 61.4426 61.4995Z" fill="#E17475"/>
</svg>
