<svg width="87" height="84" viewBox="0 0 87 84" fill="none" xmlns="http://www.w3.org/2000/svg">
<path opacity="0.9" d="M1.28362 75.1504L23 23L46.5 39.5C32.0116 53.3784 6.93106 75.1284 3.72375 77.133C1.28363 78.6581 0.521059 76.6755 1.28362 75.1504Z" stroke="#7E6EE6" stroke-width="0.305019"/>
<circle cx="36.971" cy="28.0984" r="14.9459" fill="#151E29" stroke="#5A5D7B" stroke-width="0.305019"/>
<path d="M36.2457 21.2163C36.4739 20.5137 37.4678 20.5137 37.6961 21.2163L38.7775 24.5446C38.9205 24.9845 39.3304 25.2823 39.7929 25.2823H43.2925C44.0312 25.2823 44.3383 26.2275 43.7407 26.6617L40.9094 28.7187C40.5353 28.9906 40.3787 29.4725 40.5216 29.9123L41.6031 33.2406C41.8313 33.9432 41.0272 34.5274 40.4296 34.0932L37.5984 32.0362C37.2242 31.7643 36.7176 31.7643 36.3434 32.0362L33.5121 34.0932C32.9145 34.5274 32.1104 33.9432 32.3387 33.2406L33.4201 29.9123C33.5631 29.4725 33.4065 28.9906 33.0323 28.7187L30.2011 26.6617C29.6035 26.2275 29.9106 25.2823 30.6493 25.2823H34.1489C34.6114 25.2823 35.0213 24.9845 35.1642 24.5446L36.2457 21.2163Z" stroke="#F87E7E" stroke-width="0.305019"/>
</svg>
