<svg width="44" height="44" viewBox="0 0 44 44" fill="none" xmlns="http://www.w3.org/2000/svg">
<circle cx="22" cy="22" r="22" fill="#4C76A3"/>
<path d="M23.0926 28.4277C23.0926 28.4277 23.4948 28.3838 23.7008 28.1666C23.8894 27.9676 23.8828 27.5921 23.8828 27.5921C23.8828 27.5921 23.8578 25.8385 24.6872 25.5796C25.5047 25.3249 26.5544 27.2754 27.6683 28.0254C28.5098 28.5925 29.1485 28.4684 29.1485 28.4684L32.1253 28.4277C32.1253 28.4277 33.6818 28.3336 32.9439 27.132C32.8828 27.0336 32.5133 26.2429 30.7312 24.6188C28.864 22.9187 29.1147 23.1936 31.3623 20.2524C32.7313 18.4614 33.2785 17.3679 33.1074 16.9003C32.9449 16.4531 31.9378 16.5719 31.9378 16.5719L28.5872 16.5922C28.5872 16.5922 28.3387 16.559 28.1545 16.6671C27.9746 16.773 27.858 17.0202 27.858 17.0202C27.858 17.0202 27.3283 18.4057 26.6209 19.5848C25.1287 22.0713 24.5325 22.2029 24.2883 22.0488C23.7204 21.6883 23.8621 20.6023 23.8621 19.8309C23.8621 17.4203 24.2349 16.4157 23.1373 16.1557C22.7732 16.069 22.5051 16.0123 21.5731 16.0027C20.3774 15.9909 19.3659 16.007 18.7926 16.2819C18.4111 16.4649 18.1168 16.8736 18.2967 16.8971C18.5179 16.926 19.0193 17.0298 19.2853 17.385C19.6286 17.844 19.6166 18.8733 19.6166 18.8733C19.6166 18.8733 19.8139 21.7107 19.1556 22.0627C18.7043 22.3045 18.0852 21.8113 16.7543 19.5548C16.0731 18.3993 15.5586 17.1218 15.5586 17.1218C15.5586 17.1218 15.4594 16.8832 15.2818 16.7548C15.067 16.5997 14.7673 16.5515 14.7673 16.5515L11.5834 16.5719C11.5834 16.5719 11.1049 16.5847 10.9295 16.7891C10.7736 16.9699 10.9175 17.3454 10.9175 17.3454C10.9175 17.3454 13.4103 23.0706 16.2333 25.9562C18.822 28.601 21.7606 28.4277 21.7606 28.4277H23.0926Z" fill="white"/>
</svg>
